<svg xmlns="http://www.w3.org/2000/svg" id="Layer_1" version="1.1" viewBox="131.21 319.12 817.58 143.67">
  <!-- Generator: Adobe Illustrator 29.1.0, SVG Export Plug-In . SVG Version: 2.1.0 Build 142)  -->
  <defs>
    <style>
      .st0 {
        font-family: Lufga-Light, Lufga;
        font-size: 23.93px;
        font-weight: 300;
        letter-spacing: .45em;
      }

      .st0, .st1 {
        fill: #221f20;
      }
    </style>
  </defs>
  <g>
    <path class="st1" d="M418.04,339.38h-17.17v46.93h-7.07v-46.93h-17.17v-6.68h41.41v6.68Z"/>
    <path class="st1" d="M432.65,334.33c0-2.56,1.94-4.43,4.51-4.43s4.43,1.86,4.43,4.43-1.94,4.43-4.43,4.43-4.51-1.94-4.51-4.43ZM433.82,346.69h6.68v39.63h-6.68v-39.63Z"/>
    <path class="st1" d="M470.42,341.64v5.05h11.42v6.06h-11.42v33.57h-6.68v-33.57h-7.23v-6.06h7.23v-5.52c0-7.46,3.96-11.73,11.66-11.73,2.8,0,4.74.54,6.84,1.63v5.91c-1.63-.85-3.26-1.4-5.44-1.4-4.04,0-6.37,1.79-6.37,6.06Z"/>
    <path class="st1" d="M507.79,341.64v5.05h11.42v6.06h-11.42v33.57h-6.68v-33.57h-7.23v-6.06h7.23v-5.52c0-7.46,3.96-11.73,11.66-11.73,2.8,0,4.74.54,6.84,1.63v5.91c-1.63-.85-3.26-1.4-5.44-1.4-4.04,0-6.37,1.79-6.37,6.06Z"/>
    <path class="st1" d="M571.59,346.69v39.63h-6.68v-7.15c-3.34,4.97-8.78,8.08-15.38,8.08-11.35,0-19.81-8.94-19.81-20.75s8.47-20.75,19.81-20.75c6.6,0,12.04,3.11,15.38,8.08v-7.15h6.68ZM564.91,366.5c0-8.16-6.06-14.3-14.14-14.3s-14.22,6.14-14.22,14.3,6.06,14.3,14.22,14.3,14.14-6.14,14.14-14.3Z"/>
    <path class="st1" d="M627.77,361.84v24.48h-6.68v-22.38c0-7.07-4.51-11.73-11.58-11.73s-12.12,4.74-12.12,11.89v22.22h-6.68v-39.63h6.68v6.06c3.11-4.51,8.08-6.99,14.3-6.99,9.64,0,16.08,6.37,16.08,16.08Z"/>
    <path class="st1" d="M681.78,346.69l-21.37,48.02c-2.02,4.66-5.91,7.3-10.18,7.3-3.11,0-6.76-1.48-9.09-3.81l2.8-5.13c1.32,1.48,3.26,2.49,5.28,2.49s3.81-1.01,5.05-3.57l2.87-5.91-17.25-39.39h7.69l13.36,31.62,13.36-31.62h7.46Z"/>
    <path class="st1" d="M737.35,363.71l-6.29,6.53v16.08h-7.15v-53.61h7.15v27.82l27.27-27.82h9.17l-25.33,26.11,26.19,27.51h-9.32l-21.68-22.61Z"/>
    <path class="st1" d="M781.18,330.37h6.68v55.94h-6.68v-55.94Z"/>
    <path class="st1" d="M845.67,369.46h-34.11c1.32,6.92,6.99,11.66,14.68,11.66,5.83,0,10.8-2.8,13.36-6.45l4.59,3.96c-3.96,5.28-10.49,8.62-18.18,8.62-12.43,0-21.68-9.01-21.68-20.9s8.94-20.59,20.82-20.59,20.67,8.86,20.67,20.75c0,.93-.08,2.02-.16,2.95ZM811.48,363.39h27.27c-1.24-6.84-6.68-11.5-13.68-11.5s-12.35,4.74-13.6,11.5Z"/>
    <path class="st1" d="M897.19,346.69l-21.37,48.02c-2.02,4.66-5.91,7.3-10.18,7.3-3.11,0-6.76-1.48-9.09-3.81l2.8-5.13c1.32,1.48,3.26,2.49,5.28,2.49s3.81-1.01,5.05-3.57l2.87-5.91-17.25-39.39h7.69l13.36,31.62,13.36-31.62h7.46Z"/>
    <path class="st1" d="M948.79,361.84v24.48h-6.68v-22.38c0-7.07-4.51-11.73-11.58-11.73s-12.12,4.74-12.12,11.89v22.22h-6.68v-39.63h6.68v6.06c3.11-4.51,8.08-6.99,14.3-6.99,9.64,0,16.08,6.37,16.08,16.08Z"/>
  </g>
  <path class="st1" d="M192.5,462.79c-2.2-.55-10.66-1.14-9.75-3.25.24-.56.52-1.2.47-1.78-.5-5.81-.88-11.64-1.67-17.41-.81-5.91-3.28-7.73-9.26-8.08-4.84-.29-9.79-.36-14.47-1.47-15.39-3.65-32.97-23.24-24.32-47.09,3.74-10.3,10.39-18.64,18.14-26.14,15.85-15.35,34.89-25.22,55.69-31.94,15.12-4.89,30.62-7.27,46.56-6.3,12.66.77,24.3,4.42,34.61,11.96,3.35,2.45,6.7,4.9,9.99,7.43,6.12,4.73,12.47,9.08,19.44,12.5,7.96,3.9,12.73,10.14,13.41,19.08,1.07,14.19-1.65,27.56-9.8,39.42-6.9,10.05-16.98,15.35-28.8,17-8.91,1.24-17.94,1.69-26.93,2.26-13.14.84-26.29,1.61-39.45,2.12-4.63.18-9.3-.47-13.95-.74-.44-.03-.87-.04-1.36-.07-.37,2.19-.65,4.31-1.08,6.39-.94,4.48-3.07,8.23-6.92,10.87-.36.25-.74.55-.96.92-2.43,3.96-4.83,7.94-7.3,12.01M315.51,354.41c.34.78.54,1.22.73,1.68,2.43,6.05,4.21,12.26,4.52,18.8.33,6.79-.84,13.16-5.41,18.56-.37.44-.37,1.56-.08,2.14,1.96,4.04,1.86,8.01-.13,11.96-1.76,3.51-4.42,6.26-7.69,8.34-7.36,4.68-15.47,6.91-24.16,6.85-6.22-.05-12.16-1.42-17.01-5.58-1.64-1.4-3.19-2.06-5.2-1.55-.97.25-1.93.61-2.84,1.03-3.04,1.41-5.95,3.21-9.12,4.24-8.54,2.79-17.27,2.36-25.95.65-3.65-.72-7.22-1.85-11.03-2.85-.28,2.39-.55,4.74-.84,7.2.78.2,1.39.45,2.01.49,4.78.3,9.57.96,14.33.77,15.16-.63,30.3-1.52,45.45-2.46,6.53-.41,13.07-.9,19.54-1.85,9.15-1.35,17.41-4.88,23.36-12.3,9.4-11.73,12.47-25.43,11.43-40.13-.53-7.49-4.91-12.55-11.89-15.98ZM203.99,441.08c2.19-3.54,2.67-7.44,2.93-11.39.02-.3-.23-.84-.46-.91-2.48-.7-4.53-3.09-7.59-1.69-1.09.5-2.58.34-3.84.18-11.6-1.48-23.05-3.78-33.96-8.03-4.25-1.66-8.39-2.68-12.93-2.65-4.5.03-5.82-1.56-5.76-6.11,0-.45.14-.93.05-1.36-.22-1.01-.41-2.06-.84-2.97-1.47-3.08-3.51-5.96-4.49-9.18-2.4-7.89,1.03-15.1,8.2-18.19,3.78-1.63,7.75-2,11.82-1.62.77.07,1.55.16,2.32.27.69.09,1.38.22,2.55.41-5.69-5.19-7.88-11.09-6.43-18.3-.31.14-.52.18-.64.29-6.72,6.48-12.71,13.52-16.54,22.14-6.79,15.29-2.38,31.17,11.16,40.82,6.21,4.43,13.12,5.86,20.6,5.54,5.49-.23,10.67.57,13.55,5.75,1.46-1.62,2.63-3.51,4.3-4.67,4.97-3.43,11.49-1.06,14.18,5.09.86,1.97,1.18,4.19,1.82,6.57ZM175.9,378c2.29-.29,4.09-.49,5.87-.77.39-.06.99-.35,1.07-.65.48-1.89,1.51-3.57,1-5.77-2.03-8.69-1.97-17.27,2.47-25.32,5.71-10.36,19.18-14.66,29.11-8.3.54.34,1.62.3,2.23,0,15.16-7.7,31.3-11.4,47.87-12.32-.14-.04-.66-.29-1.2-.35-5.22-.53-10.44-1.47-15.66-1.47-29.03,0-55.2,9.23-79.26,25.06-.23.15-.42.39-.86.81,4.21-.15,7.68.81,10.25,3.89,3.18,3.81,3.39,8.29,2.63,12.9-.71,4.35-2.71,8.19-5.52,12.29ZM268.69,414.01c-.03.22-.07.43-.1.65,2.33,1.05,4.57,2.52,7.02,3.09,11.67,2.73,22.34.05,32.06-6.7,1.2-.83,2.19-2.04,3.05-3.24,2.48-3.45,2.68-7.57.64-10.71-.06,0-.14-.01-.19.01-.23.11-.46.23-.68.36-8.39,4.66-17.11,6.1-26.35,2.8-.38-.14-.96.02-1.35.22-1.89.97-3.76,1.99-5.62,3.03-.46.26-1.14.65-1.2,1.05-.62,4.54-3.3,7.47-7.28,9.44ZM256.24,350.88c0-.23,0-.45.01-.68-4.9,0-9.82-.35-14.68.09-6.17.56-12.29,1.71-18.41,2.72-.69.11-1.62.92-1.81,1.58-1.15,3.9-3.19,7.26-6.09,10.02-1.41,1.34-1.51,2.85-.76,4.19,2.91,5.23,3.22,10.85,2.98,16.61-.02.5,0,1,0,2.04,14.24-22.51,18.86-26.84,38.77-36.57ZM176.16,396.48c-.05-5.48-2.78-8.74-6.71-11.22-.31-.2-1.02-.14-1.33.09-4.41,3.18-8.87,6.31-13.13,9.67-3.29,2.59-5.83,5.86-7.54,9.74-.49,1.11-.49,1.91.58,2.64,2.41,1.62,4.77,3.33,7.2,4.93.49.32,1.22.47,1.83.43,4.2-.3,8.2-1.34,11.67-3.8,4.47-3.17,7.02-7.5,7.43-12.48ZM264.03,352.75c-.89.2-1.2.25-1.51.34-20.4,6.08-33.88,19.76-42.54,38.73-.7,1.53-.33,1.92,1.44,1.75,7.09-.69,13.88-2.52,20.29-5.65,2.91-1.42,3.44-3.66,1.47-6.25-5.46-7.18-3.23-15.3,5.12-18.62.9-.36,1.83-.77,2.77-.86,3.53-.35,7.08-.54,10.6-.9.68-.07,1.82-.56,1.88-.97.3-2.41.34-4.85.48-7.57ZM287.88,355.61c1.72,5.17,2.74,10.41,2.63,15.83-.1,5.38-1.74,10.4-4.03,15.61,6.85-1.27,13.06-1.11,19.37.64.23-6.24-.53-12.17-2.4-17.94-1.71-5.27-4.33-9.91-8.83-13.42-2.19-1.71-4.26-1.77-6.75-.72ZM172.06,381.69c2.23,2.64,4.46,4.69,5.97,7.18,3.8,6.28,1.86,15.14-4.18,20.84-3.06,2.88-6.72,4.66-11.19,6.11,11.34,3.98,22.48,6.22,33.88,7.68-6.03-5.33-10.22-11.73-12.75-19.24-2.52-7.47-3.1-15.12-1.95-23-1.83.16-3.37.35-4.91.42-1.57.07-3.15.01-4.87.01ZM177.8,362.66c.07-6.37-3.04-10.01-7.81-10.04-4.76-.03-9.28,3.38-10.55,7.96-2.03,7.32,3,15.27,10.61,16.66.56.1,1.44-.2,1.8-.63,3.61-4.28,5.64-9.22,5.96-13.95ZM279.81,347.19c-.28-.59-.52-1.18-.84-1.71-2.13-3.55-4.37-7.04-6.4-10.65-2.91-5.17-7.39-6.83-12.98-5.94-9.72,1.55-19.38,3.4-28.69,6.72-.56.2-1.11.44-1.74.7,2.29,0,4.42.08,6.55-.02,5.3-.25,10.6-.85,15.9-.81,7.78.06,12.04,3.41,14.55,10.77.2.59.45,1.18.61,1.59,4.41-.22,8.65-.43,13.03-.65ZM312.46,391.39c1.16-2.36,2.71-4.53,3.33-6.95,2.55-9.98-.02-19.38-3.99-28.48-.49-1.13-1.98-2.18-3.23-2.56-3.53-1.06-7.07-.02-10.48.28,1.93,2.44,4,4.54,5.48,7.01,4.98,8.32,6.34,17.58,6.43,27.08.02,1.66.34,2.71,2.46,3.63ZM216.31,400.81c-1.27,4.99-2.37,9.33-3.5,13.79,13.08,4.74,25.81,6.3,38.73,1.25-2.75-.51-5.52-.73-8.26-1.11-6.99-.97-13.37-3.29-18.78-8.08-2.36-2.1-5.16-3.71-8.2-5.85ZM305.42,348.75c-4.14-3.11-8.34-6.23-12.51-9.4-5.52-4.2-11.1-8.3-17.46-11.16-2.22-1-4.54-1.8-6.82-2.69-.07.14-.14.28-.21.43,3.52,1.29,5.69,4.01,7.55,7.02,2.25,3.63,4.68,7.18,6.52,11.01,1.43,2.97,3.17,4.95,6.53,5.39,1.31.17,2.61,1.17,3.85,1.06,4.22-.38,8.42-1.08,12.54-1.65ZM262.57,347.89c-.88-4.45-3.75-7.44-8.11-8.24-1.45-.27-2.96-.42-4.44-.36-5.89.23-11.78.49-17.67.87-3.56.23-7.13.6-10.25,2.59-.51.33-1.16,1.05-1.1,1.52.21,1.64.7,3.24,1.08,4.86,13.41-2.99,26.82-4.34,40.49-1.23ZM212.53,340.08c-.83-.39-1.38-.68-1.97-.91-6.56-2.56-14.33-.4-18.72,5.21-2.66,3.4-4.23,7.3-4.74,11.55-.39,3.27-.38,6.58-.55,9.88.23.04.46.08.69.12,5.91-10.96,14.62-19.18,25.3-25.85ZM143.97,402.99c4.41-9.49,13.07-14.13,20.9-20.04-5.48-1.97-10.7-2.81-16.1-1.26-3.39.97-6.19,2.83-7.52,6.21-2.14,5.42-.35,10.21,2.73,15.09ZM268.62,390.93c.3-2.07.66-3.65.75-5.24.26-4.71.57-9.42.57-14.14,0-2.92-1.32-4.43-3.68-5.11-2.29,7.65-6.9,13.76-13.53,19.21,5.56,1.85,10.61,3.52,15.89,5.28ZM191.55,387.32c-.66,7.73,7.15,19.86,15.53,24,1.31-3.88,2.65-7.72,3.9-11.58.75-2.3.59-2.47-1.76-2.89-5.47-.98-10.41-3.1-14.67-6.72-1.02-.87-1.96-1.83-3-2.81ZM205.43,415.18c-.65-.47-1.06-.77-1.48-1.06-11.29-7.6-17.28-17.92-16.42-31.81.05-.77-.38-1.56-.59-2.35-.28.04-.56.09-.83.13-1.61,6.08-1.51,12.24-.07,18.36,2.24,9.58,7.14,17.47,15.58,23.47,1.35-2.38,2.58-4.54,3.83-6.75ZM266.33,394.28c-.76-.24-1.25-.38-1.73-.56-4.4-1.72-8.81-3.38-13.17-5.19-1.57-.65-4.04-.18-4.46,1.42-1.03,3.87-1.37,7.81.22,11.63.2.47,1.24.97,1.77.86,3.43-.65,6.84-1.44,10.24-2.27.56-.14,1.25-.55,1.5-1.03,1.19-2.29,2.98-3.87,5.62-4.86ZM188.7,374.93c.24,0,.48,0,.72,0,.49-.97.95-1.96,1.49-2.91,2.54-4.47,5.7-8.19,11.11-9.26.53-.11,1.01-.68,1.43-1.12,2.1-2.18,4.18-4.38,6.26-6.58.38-.41.99-.78,1.09-1.26.76-3.81,2.11-7.37,4.31-10.63-11.62,7.02-20.84,16.19-26.35,28.73-.38.85-.05,2.01-.05,3.03ZM272.77,391.36c2.12,1,4.1,1.02,5.78-1.06.93-1.15,1.97-2.23,3.01-3.3.87-.9.92-1.83.53-3.01-2.55-7.86-6.24-15.2-10.25-22.39-.13-.23-.22-.47-.32-.68-1.22.67-2.13,1.18-3.27,1.81,3.33,1.69,4.95,4.24,5.39,7.52.23,1.72.36,3.49.26,5.23-.3,5.23-.74,10.45-1.14,15.88ZM199.76,441.07c0-2.94-1.11-5.82-2.92-7.61-2.33-2.31-5.67-2.33-7.71.07-2.12,2.5-2.41,5.43-1.25,8.39,1.14,2.91,3.57,4.16,6.59,4.28,4.06.16,5.3-1.08,5.29-5.14ZM242.15,392.62c-6.5,1.74-13.19,3.52-20.17,5.39.93.91,1.81,2.46,3.08,2.91,5.87,2.09,12,2.51,17.92,2.12-.29-3.65-.58-7.22-.84-10.42ZM285.19,380.16c2.6-8.17,1.57-15.96-1.26-23.86-3.08,1.04-5.92,2-8.55,2.89,3.33,7.11,6.52,13.93,9.81,20.97ZM212,393.37c.26-.09.52-.19.78-.28.18-2.21.74-4.47.46-6.63-.65-5.06-1.68-10.08-2.6-15.11-.12-.66-.46-1.28-.73-1.98-1.83,1.11-3.38,1.94-4.79,2.96-.51.37-.97,1.19-.99,1.82-.12,4.17.92,8.13,2.93,11.74,1.45,2.6,3.27,5,4.92,7.48ZM200.16,374.9c-2.57,1.04-5.02,1.77-7.16,3.03-.72.43-.84,2.17-.9,3.33-.03.57.7,1.2,1.12,1.77,3.25,4.37,7.38,7.49,13.07,9.13-3.61-5.36-5.78-10.84-6.14-17.26ZM260.03,408.08c-.6.09-1.04.15-1.48.24-4.21.78-8.36,1.2-12.19-1.42-.36-.25-.98-.15-1.48-.15-3.95-.04-7.89-.06-11.84-.09-.55,0-1.1,0-1.65,0,8.2,4.56,17.13,5.04,26.07,5.29,1.51.04,2.96-2.31,2.57-3.87ZM246.17,378.98c3.58-4.54,7.22-9.15,11.12-14.09-2.81.73-5.53,1.13-8,2.13-5.63,2.27-6.75,7.42-3.11,11.96ZM186.39,447.05c.3,3.69.58,7.07.86,10.43.99.22,1.8.47,2.62.57.49.06,1.26.06,1.49-.23,1.88-2.43,3.66-4.94,5.74-7.79-4.19.36-7.65-.31-10.7-2.97ZM304.81,392.21c0-.23,0-.46-.01-.69-.61-.19-1.22-.4-1.83-.57-4.61-1.28-9.24-.76-13.89-.25-1.67.18-2.25.93-1.73,2.77,5.84-.1,11.83,1.45,17.47-1.27ZM261.52,367.54c-5.25,4.07-9.47,8.96-11.9,15.23,5.5-3.87,9.65-8.79,11.9-15.23ZM268.97,351.83c1.17,1.31,2.18,2.48,3.25,3.58.26.27.82.56,1.11.46,3.04-1.03,6.05-2.14,9.09-3.24-1.13-1.62-7.49-1.98-13.46-.81ZM271.86,405.46c-3.33-.33-5.19,1.37-6.41,4.01-.14.3-.16.82.01,1.03.15.18.7.18,1,.06,2.43-.93,4.4-2.39,5.4-5.1ZM281.17,397.2c-2.76-1.03-4.76-1.05-6.46.96.31.62.6,1.22,1.02,2.06,1.78-.99,3.41-1.9,5.43-3.02ZM195.02,372.19c5.97-1.66,5.64-1.46,5.57-5.22-2.06,1.93-3.82,3.58-5.57,5.22ZM204.95,423.76c.91.35,1.64.63,2.52.97.25-2,.46-3.68.66-5.37-.09-.03-.18-.07-.28-.1-.92,1.43-1.84,2.85-2.91,4.5ZM217.56,346.85c-.79,1.78-1.39,3.12-2.11,4.72,3.05-1,3.2-1.33,2.11-4.72ZM209.98,364.33v-4.49c-1.08,1.3-1.88,2.26-2.76,3.32.98.41,1.74.73,2.76,1.17ZM298.08,398.05c.03-.14.06-.27.08-.41h-8.86c0,.14,0,.27,0,.41h8.78ZM214.55,359.7c.74-1.28,1.48-2.56,2.38-4.11-2.75.53-2.9,2.18-2.38,4.11Z"/>
  <text class="st0" transform="translate(432.76 442.16)"><tspan x="0" y="0">occupational therapy</tspan></text>
</svg>