<?xml version="1.0" encoding="UTF-8"?>
<svg id="Layer_1" xmlns="http://www.w3.org/2000/svg" version="1.1" viewBox="0 0 1080 781.9">
  <!-- Generator: Adobe Illustrator 29.1.0, SVG Export Plug-In . SVG Version: 2.1.0 Build 142)  -->
  <defs>
    <style>
      .st0 {
        font-family: Lufga-Regular, Lufga;
        font-size: 109.02px;
        letter-spacing: .1em;
      }

      .st0, .st1, .st2 {
        fill: #221f20;
      }

      .st1 {
        font-family: Lufga-Light, Lufga;
        font-size: 33.24px;
        font-weight: 300;
        letter-spacing: .45em;
      }
    </style>
  </defs>
  <text class="st0" transform="translate(133.6 505.38)"><tspan x="0" y="0">Tiffany Kleyn</tspan></text>
  <path class="st2" d="M485.46,392.07c-3.08-.77-14.96-1.6-13.68-4.57.34-.79.73-1.69.66-2.5-.7-8.15-1.23-16.32-2.35-24.42-1.14-8.29-4.6-10.84-13-11.33-6.79-.4-13.73-.5-20.29-2.06-21.59-5.13-46.26-32.61-34.11-66.06,5.25-14.46,14.58-26.15,25.45-36.67,22.23-21.53,48.95-35.38,78.12-44.81,21.22-6.86,42.95-10.2,65.32-8.84,17.76,1.08,34.09,6.2,48.55,16.78,4.7,3.44,9.41,6.87,14.01,10.43,8.59,6.63,17.5,12.74,27.27,17.53,11.17,5.48,17.86,14.23,18.81,26.77,1.49,19.9-2.31,38.66-13.74,55.3-9.69,14.1-23.83,21.53-40.41,23.84-12.5,1.74-25.17,2.37-37.78,3.17-18.44,1.18-36.88,2.26-55.34,2.98-6.5.26-13.05-.66-19.57-1.03-.61-.04-1.23-.06-1.9-.1-.51,3.07-.91,6.04-1.52,8.96-1.31,6.29-4.31,11.54-9.71,15.25-.51.35-1.03.77-1.35,1.29-3.41,5.56-6.78,11.14-10.24,16.85M658.03,240.03c.47,1.09.76,1.71,1.02,2.35,3.4,8.48,5.9,17.2,6.35,26.38.46,9.53-1.18,18.46-7.59,26.04-.52.62-.52,2.19-.12,3,2.75,5.66,2.61,11.24-.18,16.78-2.47,4.92-6.2,8.78-10.79,11.7-10.32,6.56-21.7,9.7-33.89,9.6-8.73-.07-17.06-1.99-23.86-7.82-2.3-1.97-4.47-2.89-7.3-2.17-1.36.35-2.71.85-3.99,1.45-4.27,1.98-8.35,4.5-12.79,5.95-11.98,3.92-24.23,3.31-36.41.91-5.12-1.01-10.12-2.6-15.48-4.01-.39,3.35-.77,6.65-1.17,10.1,1.1.27,1.95.63,2.82.68,6.7.42,13.43,1.35,20.11,1.07,21.26-.89,42.51-2.14,63.75-3.46,9.16-.57,18.34-1.26,27.41-2.6,12.84-1.89,24.42-6.84,32.77-17.26,13.18-16.46,17.49-35.68,16.03-56.29-.74-10.51-6.89-17.61-16.68-22.42ZM501.58,361.61c3.07-4.96,3.75-10.43,4.11-15.97.03-.42-.32-1.18-.64-1.27-3.48-.99-6.35-4.33-10.65-2.37-1.52.7-3.61.48-5.39.26-16.28-2.07-32.34-5.3-47.64-11.27-5.97-2.33-11.76-3.77-18.14-3.72-6.32.04-8.17-2.19-8.08-8.57,0-.64.2-1.3.07-1.9-.31-1.41-.57-2.88-1.18-4.17-2.06-4.32-4.92-8.37-6.3-12.88-3.37-11.06,1.45-21.18,11.5-25.51,5.31-2.29,10.88-2.8,16.58-2.27,1.09.1,2.17.23,3.25.37.97.13,1.94.31,3.58.58-7.98-7.29-11.06-15.56-9.02-25.67-.44.2-.72.25-.9.41-9.43,9.08-17.83,18.96-23.2,31.06-9.52,21.46-3.33,43.73,15.66,57.26,8.72,6.21,18.41,8.22,28.91,7.78,7.7-.33,14.97.8,19,8.06,2.05-2.28,3.69-4.93,6.04-6.55,6.97-4.81,16.11-1.49,19.89,7.14,1.21,2.77,1.65,5.88,2.55,9.21ZM462.17,273.11c3.21-.41,5.73-.68,8.23-1.08.55-.09,1.39-.49,1.5-.91.67-2.65,2.12-5.01,1.4-8.1-2.85-12.19-2.76-24.23,3.47-35.53,8.01-14.53,26.91-20.57,40.84-11.64.75.48,2.28.42,3.12-.01,21.26-10.8,43.91-15.99,67.15-17.28-.2-.06-.93-.41-1.68-.48-7.32-.75-14.64-2.06-21.97-2.06-40.72.01-77.44,12.95-111.18,35.16-.33.22-.58.54-1.21,1.14,5.91-.22,10.77,1.13,14.38,5.45,4.46,5.35,4.75,11.62,3.69,18.09-1,6.11-3.8,11.49-7.74,17.24ZM592.33,323.64c-.05.3-.1.61-.14.91,3.27,1.48,6.41,3.53,9.84,4.33,16.38,3.83,31.33.07,44.98-9.39,1.68-1.16,3.07-2.86,4.28-4.54,3.49-4.83,3.75-10.62.9-15.02-.09,0-.2-.02-.27.02-.32.16-.64.32-.96.5-11.77,6.54-24,8.56-36.97,3.93-.53-.19-1.34.03-1.89.31-2.65,1.36-5.28,2.79-7.88,4.25-.65.37-1.6.91-1.68,1.47-.87,6.37-4.63,10.48-10.22,13.24ZM574.88,235.07c0-.32.01-.63.02-.95-6.87,0-13.78-.49-20.59.12-8.66.78-17.24,2.39-25.83,3.82-.97.16-2.27,1.28-2.54,2.22-1.61,5.47-4.47,10.18-8.55,14.05-1.98,1.89-2.11,4-1.07,5.88,4.08,7.33,4.51,15.23,4.19,23.3-.03.7,0,1.4,0,2.86,19.97-31.58,26.46-37.66,54.38-51.3ZM462.54,299.04c-.07-7.69-3.9-12.26-9.41-15.74-.44-.28-1.43-.19-1.87.13-6.18,4.47-12.44,8.85-18.42,13.57-4.61,3.63-8.18,8.23-10.58,13.67-.68,1.55-.69,2.68.82,3.7,3.38,2.28,6.69,4.67,10.1,6.91.69.46,1.72.66,2.56.6,5.89-.42,11.5-1.87,16.37-5.33,6.27-4.45,9.85-10.52,10.43-17.5ZM585.8,237.7c-1.24.28-1.69.35-2.12.48-28.62,8.53-47.53,27.72-59.67,54.33-.98,2.15-.47,2.7,2.01,2.45,9.95-.97,19.47-3.53,28.47-7.93,4.09-2,4.82-5.14,2.06-8.77-7.66-10.07-4.54-21.46,7.18-26.12,1.26-.5,2.57-1.07,3.89-1.21,4.95-.49,9.93-.75,14.88-1.26.95-.1,2.56-.79,2.63-1.36.42-3.38.47-6.8.67-10.63ZM619.27,241.71c2.42,7.25,3.84,14.6,3.7,22.2-.14,7.54-2.44,14.6-5.65,21.9,9.6-1.79,18.32-1.55,27.18.9.32-8.76-.74-17.07-3.37-25.17-2.4-7.4-6.08-13.9-12.38-18.83-3.07-2.4-5.97-2.48-9.47-1.01ZM456.79,278.29c3.13,3.71,6.26,6.58,8.37,10.08,5.34,8.81,2.61,21.25-5.86,29.23-4.29,4.04-9.42,6.54-15.7,8.57,15.9,5.58,31.53,8.73,47.53,10.77-8.46-7.47-14.33-16.45-17.88-26.98-3.53-10.48-4.35-21.22-2.74-32.27-2.56.23-4.72.49-6.89.58-2.2.1-4.42.02-6.83.02ZM464.84,251.6c.1-8.93-4.26-14.04-10.96-14.08-6.68-.04-13.02,4.75-14.81,11.16-2.85,10.26,4.21,21.42,14.88,23.37.78.14,2.02-.28,2.52-.88,5.06-6,7.92-12.93,8.36-19.57ZM607.94,229.89c-.4-.82-.73-1.65-1.18-2.4-2.99-4.98-6.13-9.88-8.98-14.94-4.09-7.25-10.37-9.59-18.2-8.34-13.64,2.17-27.19,4.77-40.24,9.43-.79.28-1.56.62-2.44.98,3.21,0,6.2.12,9.19-.02,7.44-.35,14.88-1.19,22.31-1.13,10.92.08,16.88,4.78,20.41,15.11.29.83.63,1.65.85,2.23,6.19-.31,12.13-.6,18.28-.91ZM653.74,291.9c1.62-3.3,3.8-6.36,4.67-9.75,3.58-14-.02-27.19-5.59-39.95-.69-1.58-2.78-3.07-4.52-3.59-4.96-1.49-9.91-.03-14.71.39,2.71,3.42,5.61,6.37,7.68,9.83,6.98,11.67,8.9,24.67,9.02,37.99.02,2.32.47,3.81,3.45,5.09ZM518.87,305.12c-1.78,7-3.32,13.08-4.91,19.34,18.35,6.66,36.21,8.84,54.34,1.76-3.86-.72-7.74-1.03-11.59-1.56-9.81-1.36-18.76-4.61-26.34-11.34-3.32-2.94-7.24-5.2-11.5-8.2ZM643.86,232.08c-5.8-4.36-11.7-8.74-17.55-13.19-7.74-5.9-15.57-11.64-24.5-15.66-3.12-1.41-6.37-2.52-9.57-3.77-.1.2-.2.4-.3.6,4.93,1.81,7.98,5.63,10.6,9.84,3.15,5.09,6.56,10.08,9.15,15.45,2.01,4.16,4.45,6.94,9.17,7.56,1.84.24,3.66,1.64,5.4,1.49,5.92-.53,11.81-1.52,17.59-2.31ZM583.76,230.88c-1.24-6.24-5.27-10.44-11.38-11.56-2.04-.38-4.16-.58-6.22-.5-8.27.32-16.53.69-24.79,1.22-4.99.32-10.01.84-14.38,3.64-.71.46-1.63,1.48-1.55,2.13.29,2.3.98,4.55,1.51,6.81,18.81-4.2,37.63-6.09,56.8-1.72ZM513.55,219.92c-1.16-.54-1.94-.96-2.76-1.28-9.21-3.59-20.11-.56-26.27,7.31-3.73,4.77-5.94,10.24-6.65,16.2-.55,4.58-.54,9.24-.78,13.86.32.06.64.11.96.17,8.29-15.37,20.51-26.91,35.49-36.26ZM417.38,308.17c6.19-13.32,18.34-19.82,29.31-28.12-7.69-2.76-15.02-3.95-22.59-1.77-4.76,1.37-8.68,3.97-10.55,8.71-3,7.61-.48,14.32,3.83,21.17ZM592.24,291.26c.43-2.9.93-5.12,1.05-7.36.37-6.61.8-13.22.8-19.83,0-4.09-1.85-6.22-5.16-7.17-3.21,10.73-9.67,19.3-18.98,26.95,7.8,2.59,14.88,4.94,22.29,7.4ZM484.12,286.19c-.92,10.84,10.03,27.86,21.79,33.67,1.84-5.45,3.71-10.83,5.47-16.25,1.05-3.23.82-3.47-2.47-4.06-7.67-1.37-14.61-4.35-20.58-9.43-1.43-1.22-2.75-2.56-4.21-3.94ZM503.6,325.28c-.92-.66-1.49-1.09-2.08-1.48-15.84-10.66-24.24-25.14-23.04-44.62.07-1.08-.53-2.19-.82-3.29-.39.06-.78.12-1.17.18-2.26,8.53-2.11,17.17-.1,25.76,3.15,13.44,10.02,24.51,21.85,32.93,1.9-3.35,3.62-6.37,5.37-9.46ZM589.03,295.96c-1.06-.34-1.75-.53-2.42-.79-6.17-2.41-12.36-4.74-18.48-7.28-2.2-.91-5.67-.25-6.26,1.99-1.45,5.43-1.92,10.96.31,16.32.28.66,1.73,1.36,2.49,1.21,4.82-.92,9.6-2.02,14.36-3.18.79-.19,1.75-.77,2.1-1.45,1.67-3.21,4.18-5.43,7.89-6.82ZM480.12,268.82c.34,0,.67,0,1.01,0,.69-1.36,1.33-2.76,2.09-4.08,3.57-6.27,8-11.49,15.58-12.99.75-.15,1.42-.96,2.01-1.57,2.95-3.06,5.86-6.15,8.78-9.23.54-.57,1.39-1.1,1.52-1.76,1.07-5.35,2.95-10.34,6.04-14.91-16.3,9.84-29.23,22.72-36.96,40.3-.53,1.2-.07,2.83-.07,4.25ZM598.07,291.86c2.97,1.4,5.76,1.43,8.12-1.48,1.31-1.62,2.77-3.13,4.22-4.63,1.23-1.27,1.29-2.57.75-4.22-3.57-11.03-8.75-21.32-14.38-31.41-.18-.32-.31-.66-.45-.95-1.7.94-2.99,1.65-4.59,2.54,4.67,2.38,6.95,5.95,7.56,10.54.32,2.42.51,4.9.37,7.33-.42,7.34-1.04,14.66-1.59,22.28ZM495.64,361.59c-.01-4.12-1.56-8.16-4.09-10.67-3.27-3.24-7.96-3.27-10.82.1-2.98,3.51-3.38,7.61-1.75,11.77,1.6,4.08,5.01,5.84,9.24,6,5.69.23,7.44-1.52,7.42-7.21ZM555.11,293.63c-9.12,2.44-18.51,4.94-28.29,7.56,1.31,1.28,2.54,3.45,4.33,4.09,8.24,2.94,16.83,3.53,25.14,2.97-.41-5.12-.81-10.12-1.17-14.61ZM615.48,276.15c3.65-11.46,2.2-22.39-1.77-33.47-4.33,1.46-8.31,2.8-12,4.05,4.66,9.97,9.15,19.55,13.76,29.42ZM512.82,294.67c.37-.13.73-.26,1.1-.39.25-3.1,1.03-6.28.65-9.3-.91-7.11-2.36-14.14-3.64-21.2-.17-.93-.65-1.79-1.02-2.78-2.56,1.55-4.74,2.72-6.71,4.15-.72.52-1.36,1.67-1.39,2.55-.17,5.85,1.3,11.4,4.11,16.47,2.03,3.65,4.58,7.01,6.9,10.5ZM496.2,268.76c-3.61,1.46-7.04,2.49-10.04,4.25-1.02.6-1.18,3.05-1.26,4.67-.04.8.98,1.68,1.57,2.48,4.56,6.13,10.35,10.51,18.33,12.81-5.07-7.53-8.11-15.21-8.61-24.21ZM580.19,315.32c-.84.13-1.46.22-2.08.33-5.9,1.1-11.73,1.68-17.11-1.99-.51-.35-1.38-.21-2.08-.22-5.54-.05-11.07-.09-16.61-.12-.77,0-1.54,0-2.31,0,11.51,6.39,24.03,7.07,36.58,7.43,2.12.06,4.15-3.25,3.61-5.43ZM560.75,274.49c5.03-6.37,10.13-12.83,15.6-19.76-3.95,1.02-7.75,1.59-11.23,2.98-7.9,3.18-9.47,10.41-4.37,16.78ZM476.89,369.99c.42,5.17.81,9.92,1.2,14.63,1.39.31,2.52.66,3.68.8.69.08,1.77.08,2.08-.33,2.64-3.42,5.14-6.94,8.05-10.93-5.88.5-10.73-.43-15.01-4.17ZM643.02,293.05c0-.32-.01-.64-.02-.96-.86-.27-1.71-.55-2.57-.79-6.46-1.8-12.97-1.07-19.48-.34-2.34.26-3.15,1.31-2.43,3.89,8.19-.14,16.59,2.04,24.5-1.79ZM582.28,258.44c-7.36,5.71-13.28,12.57-16.7,21.36,7.72-5.42,13.54-12.34,16.7-21.36ZM592.73,236.4c1.65,1.83,3.05,3.47,4.55,5.02.37.38,1.15.79,1.56.65,4.26-1.45,8.48-3,12.76-4.54-1.59-2.27-10.51-2.77-18.88-1.13ZM596.78,311.64c-4.67-.46-7.29,1.92-8.99,5.63-.19.42-.23,1.15.02,1.44.21.25.98.25,1.4.09,3.41-1.31,6.17-3.35,7.58-7.16ZM609.84,300.05c-3.87-1.44-6.68-1.48-9.06,1.34.43.86.85,1.71,1.43,2.9,2.5-1.39,4.79-2.66,7.62-4.24ZM488.99,264.97c8.37-2.33,7.92-2.04,7.82-7.33-2.89,2.71-5.35,5.02-7.82,7.33ZM502.93,337.32c1.27.49,2.29.88,3.53,1.36.35-2.8.64-5.17.93-7.53-.13-.05-.26-.1-.39-.14-1.29,2-2.58,4-4.08,6.32ZM520.61,229.41c-1.11,2.49-1.95,4.37-2.96,6.63,4.28-1.41,4.49-1.87,2.96-6.63ZM509.99,253.94v-6.3c-1.52,1.83-2.64,3.17-3.88,4.66,1.37.58,2.44,1.03,3.88,1.64ZM633.57,301.24c.04-.19.08-.38.12-.57h-12.44c0,.19,0,.38,0,.57h12.32ZM516.39,247.45c1.04-1.8,2.08-3.6,3.34-5.77-3.86.74-4.07,3.06-3.34,5.77Z"/>
  <text class="st1" transform="translate(222.11 584.08)"><tspan x="0" y="0">occupational therapy</tspan></text>
</svg>