<svg xmlns="http://www.w3.org/2000/svg" id="Layer_1" version="1.1" viewBox="88.6 112.37 947.77 166.56">
  <!-- Generator: Adobe Illustrator 29.1.0, SVG Export Plug-In . SVG Version: 2.1.0 Build 142)  -->
  <defs>
    <style>
      .st0 {
        fill: #fff;
      }
    </style>
  </defs>
  <g>
    <path class="st0" d="M421.11,135.87h-19.91v54.4h-8.2v-54.4h-19.91v-7.75h48.01v7.75Z"/>
    <path class="st0" d="M438.05,130.02c0-2.97,2.25-5.13,5.22-5.13s5.13,2.16,5.13,5.13-2.25,5.13-5.13,5.13-5.22-2.25-5.22-5.13ZM439.4,144.34h7.75v45.94h-7.75v-45.94Z"/>
    <path class="st0" d="M481.82,138.48v5.86h13.24v7.03h-13.24v38.91h-7.75v-38.91h-8.38v-7.03h8.38v-6.4c0-8.65,4.59-13.6,13.51-13.6,3.24,0,5.49.63,7.93,1.89v6.85c-1.89-.99-3.78-1.62-6.31-1.62-4.68,0-7.39,2.07-7.39,7.03Z"/>
    <path class="st0" d="M525.15,138.48v5.86h13.24v7.03h-13.24v38.91h-7.75v-38.91h-8.38v-7.03h8.38v-6.4c0-8.65,4.59-13.6,13.51-13.6,3.24,0,5.49.63,7.93,1.89v6.85c-1.89-.99-3.78-1.62-6.31-1.62-4.68,0-7.39,2.07-7.39,7.03Z"/>
    <path class="st0" d="M599.11,144.34v45.94h-7.75v-8.29c-3.87,5.76-10.18,9.37-17.83,9.37-13.15,0-22.97-10.36-22.97-24.05s9.82-24.05,22.97-24.05c7.66,0,13.96,3.6,17.83,9.37v-8.29h7.75ZM591.36,167.31c0-9.46-7.03-16.57-16.39-16.57s-16.48,7.12-16.48,16.57,7.03,16.57,16.48,16.57,16.39-7.12,16.39-16.57Z"/>
    <path class="st0" d="M664.24,161.9v28.37h-7.75v-25.94c0-8.2-5.22-13.6-13.42-13.6s-14.05,5.49-14.05,13.78v25.76h-7.75v-45.94h7.75v7.03c3.6-5.22,9.37-8.11,16.57-8.11,11.17,0,18.65,7.39,18.65,18.65Z"/>
    <path class="st0" d="M726.85,144.34l-24.77,55.66c-2.34,5.4-6.85,8.47-11.8,8.47-3.6,0-7.84-1.71-10.54-4.41l3.24-5.95c1.53,1.71,3.78,2.88,6.13,2.88s4.41-1.17,5.85-4.14l3.33-6.85-20-45.67h8.92l15.49,36.66,15.49-36.66h8.65Z"/>
    <path class="st0" d="M791.26,164.06l-7.3,7.57v18.65h-8.29v-62.15h8.29v32.25l31.62-32.25h10.63l-29.36,30.26,30.36,31.89h-10.81l-25.13-26.21Z"/>
    <path class="st0" d="M842.07,125.42h7.75v64.85h-7.75v-64.85Z"/>
    <path class="st0" d="M916.83,170.73h-39.54c1.53,8.02,8.11,13.51,17.02,13.51,6.76,0,12.52-3.24,15.49-7.48l5.32,4.59c-4.59,6.12-12.16,10-21.08,10-14.41,0-25.13-10.45-25.13-24.23s10.36-23.87,24.14-23.87,23.96,10.27,23.96,24.05c0,1.08-.09,2.34-.18,3.42ZM877.2,163.7h31.62c-1.44-7.93-7.75-13.33-15.85-13.33s-14.32,5.5-15.76,13.33Z"/>
    <path class="st0" d="M976.56,144.34l-24.77,55.66c-2.34,5.4-6.85,8.47-11.8,8.47-3.6,0-7.84-1.71-10.54-4.41l3.24-5.95c1.53,1.71,3.78,2.88,6.13,2.88s4.41-1.17,5.85-4.14l3.33-6.85-20-45.67h8.92l15.49,36.66,15.49-36.66h8.65Z"/>
    <path class="st0" d="M1036.37,161.9v28.37h-7.75v-25.94c0-8.2-5.22-13.6-13.42-13.6s-14.05,5.49-14.05,13.78v25.76h-7.75v-45.94h7.75v7.03c3.6-5.22,9.37-8.11,16.57-8.11,11.17,0,18.65,7.39,18.65,18.65Z"/>
  </g>
  <path class="st0" d="M159.66,278.93c-2.55-.64-12.36-1.32-11.31-3.77.28-.65.6-1.39.55-2.06-.58-6.73-1.02-13.49-1.94-20.18-.94-6.85-3.8-8.96-10.74-9.37-5.61-.33-11.35-.41-16.77-1.7-17.84-4.24-38.23-26.94-28.19-54.59,4.34-11.95,12.05-21.6,21.03-30.3,18.37-17.79,40.45-29.23,64.55-37.03,17.53-5.67,35.49-8.43,53.98-7.31,14.68.89,28.17,5.12,40.12,13.86,3.88,2.84,7.77,5.68,11.58,8.62,7.1,5.48,14.46,10.53,22.53,14.49,9.23,4.53,14.76,11.76,15.54,22.12,1.24,16.45-1.91,31.95-11.35,45.7-8,11.65-19.69,17.79-33.39,19.7-10.33,1.44-20.8,1.96-31.22,2.62-15.23.97-30.48,1.86-45.73,2.46-5.37.21-10.78-.54-16.17-.85-.51-.03-1.01-.05-1.57-.08-.42,2.54-.75,4.99-1.25,7.41-1.09,5.19-3.56,9.54-8.03,12.6-.42.29-.85.64-1.12,1.06-2.82,4.59-5.6,9.21-8.46,13.92M302.26,153.29c.39.9.63,1.41.84,1.94,2.81,7.01,4.88,14.21,5.24,21.8.38,7.87-.97,15.26-6.27,21.52-.43.51-.43,1.81-.1,2.48,2.27,4.68,2.16,9.28-.15,13.87-2.04,4.06-5.12,7.25-8.91,9.66-8.53,5.42-17.93,8.01-28,7.94-7.21-.06-14.09-1.64-19.72-6.47-1.9-1.63-3.69-2.39-6.03-1.79-1.13.29-2.24.71-3.29,1.19-3.53,1.63-6.9,3.72-10.57,4.92-9.9,3.24-20.02,2.73-30.09.75-4.23-.83-8.36-2.15-12.79-3.31-.32,2.77-.64,5.49-.97,8.35.91.23,1.61.52,2.33.56,5.54.35,11.1,1.12,16.62.89,17.57-.74,35.13-1.77,52.68-2.86,7.57-.47,15.15-1.04,22.65-2.15,10.61-1.56,20.18-5.65,27.08-14.26,10.89-13.6,14.45-29.48,13.25-46.52-.61-8.68-5.69-14.55-13.79-18.53ZM172.98,253.76c2.53-4.1,3.1-8.62,3.4-13.2.02-.35-.27-.98-.53-1.05-2.88-.81-5.25-3.58-8.8-1.96-1.26.58-2.99.4-4.45.21-13.45-1.71-26.72-4.38-39.37-9.31-4.93-1.92-9.72-3.11-14.99-3.08-5.22.03-6.75-1.81-6.68-7.08,0-.53.17-1.08.06-1.57-.25-1.17-.47-2.38-.98-3.45-1.71-3.57-4.07-6.91-5.21-10.64-2.79-9.14,1.2-17.51,9.5-21.08,4.39-1.89,8.99-2.31,13.7-1.88.9.08,1.79.19,2.69.31.8.11,1.6.26,2.96.48-6.6-6.02-9.14-12.86-7.45-21.21-.36.16-.6.2-.74.34-7.79,7.51-14.73,15.67-19.17,25.66-7.87,17.73-2.75,36.13,12.94,47.32,7.2,5.13,15.21,6.79,23.89,6.43,6.36-.27,12.37.66,15.7,6.66,1.69-1.88,3.05-4.07,4.99-5.41,5.76-3.97,13.31-1.23,16.43,5.9,1,2.29,1.37,4.86,2.11,7.61ZM140.41,180.63c2.65-.34,4.74-.56,6.8-.89.46-.07,1.15-.41,1.24-.75.56-2.19,1.75-4.14,1.16-6.69-2.35-10.07-2.28-20.02,2.87-29.36,6.62-12.01,22.23-16.99,33.75-9.62.62.4,1.88.35,2.58-.01,17.57-8.93,36.29-13.21,55.49-14.28-.16-.05-.77-.34-1.39-.4-6.05-.62-12.1-1.7-18.15-1.7-33.65,0-63.99,10.7-91.88,29.05-.27.18-.48.45-1,.94,4.88-.18,8.9.94,11.88,4.51,3.69,4.42,3.93,9.61,3.05,14.95-.83,5.05-3.14,9.49-6.4,14.25ZM247.97,222.38c-.04.25-.08.5-.12.75,2.71,1.22,5.3,2.92,8.13,3.58,13.53,3.16,25.89.06,37.17-7.76,1.39-.96,2.54-2.37,3.54-3.75,2.88-3.99,3.1-8.78.75-12.41-.08,0-.16-.02-.22.01-.27.13-.53.27-.79.41-9.72,5.4-19.84,7.07-30.55,3.24-.44-.16-1.11.02-1.56.26-2.19,1.13-4.36,2.3-6.51,3.51-.54.3-1.32.75-1.39,1.21-.72,5.26-3.83,8.66-8.44,10.94ZM233.55,149.19c0-.26.01-.52.02-.78-5.68,0-11.39-.41-17.02.1-7.15.64-14.25,1.98-21.35,3.16-.8.13-1.87,1.06-2.1,1.83-1.33,4.52-3.69,8.41-7.06,11.61-1.64,1.56-1.75,3.31-.88,4.86,3.37,6.06,3.73,12.58,3.46,19.25-.02.58,0,1.16,0,2.36,16.5-26.1,21.86-31.12,44.94-42.39ZM140.72,202.06c-.06-6.36-3.22-10.13-7.78-13-.36-.23-1.18-.16-1.54.1-5.11,3.69-10.28,7.31-15.22,11.21-3.81,3-6.76,6.8-8.74,11.3-.57,1.28-.57,2.21.68,3.05,2.8,1.88,5.53,3.86,8.35,5.71.57.38,1.42.54,2.12.49,4.87-.35,9.5-1.55,13.53-4.41,5.19-3.68,8.14-8.69,8.62-14.46ZM242.57,151.37c-1.03.23-1.4.29-1.75.4-23.65,7.05-39.28,22.91-49.31,44.9-.81,1.77-.39,2.23,1.66,2.03,8.22-.81,16.09-2.92,23.52-6.55,3.38-1.65,3.98-4.24,1.7-7.24-6.33-8.32-3.75-17.73,5.94-21.58,1.04-.41,2.12-.89,3.21-1,4.09-.41,8.2-.62,12.29-1.04.79-.08,2.12-.65,2.17-1.13.35-2.79.39-5.62.55-8.78ZM270.23,154.68c2,5.99,3.17,12.06,3.05,18.35-.12,6.23-2.01,12.06-4.67,18.1,7.94-1.48,15.14-1.28,22.46.74.26-7.24-.61-14.1-2.79-20.8-1.99-6.11-5.02-11.49-10.23-15.56-2.54-1.99-4.94-2.05-7.83-.83ZM135.97,184.91c2.59,3.06,5.17,5.44,6.92,8.33,4.41,7.28,2.16,17.56-4.85,24.15-3.54,3.34-7.79,5.41-12.97,7.08,13.14,4.61,26.06,7.21,39.27,8.9-6.99-6.18-11.84-13.6-14.78-22.3-2.92-8.66-3.59-17.53-2.26-26.66-2.12.19-3.9.41-5.7.48-1.82.08-3.65.02-5.64.02ZM142.62,162.86c.09-7.38-3.52-11.6-9.06-11.64-5.52-.03-10.76,3.92-12.23,9.23-2.35,8.48,3.48,17.7,12.3,19.31.64.12,1.67-.23,2.08-.73,4.18-4.96,6.54-10.69,6.91-16.17ZM260.87,144.92c-.33-.68-.6-1.36-.97-1.98-2.47-4.12-5.06-8.16-7.42-12.35-3.38-5.99-8.57-7.92-15.04-6.89-11.27,1.79-22.47,3.94-33.26,7.79-.65.23-1.29.51-2.01.81,2.65,0,5.13.1,7.59-.02,6.15-.29,12.29-.98,18.44-.94,9.02.07,13.95,3.95,16.87,12.48.24.69.52,1.36.7,1.84,5.11-.25,10.03-.5,15.11-.75ZM298.72,196.15c1.34-2.73,3.14-5.26,3.86-8.06,2.96-11.57-.02-22.47-4.62-33.02-.57-1.31-2.3-2.53-3.74-2.97-4.1-1.23-8.19-.03-12.15.32,2.24,2.82,4.64,5.27,6.35,8.12,5.77,9.64,7.35,20.38,7.46,31.39.02,1.92.39,3.15,2.85,4.2ZM187.26,207.08c-1.47,5.79-2.74,10.81-4.06,15.99,15.16,5.5,29.92,7.31,44.9,1.45-3.19-.59-6.4-.85-9.58-1.29-8.11-1.12-15.5-3.81-21.77-9.37-2.74-2.43-5.98-4.3-9.5-6.78ZM290.55,146.73c-4.79-3.6-9.67-7.22-14.5-10.9-6.39-4.87-12.87-9.62-20.24-12.94-2.58-1.16-5.27-2.08-7.91-3.11-.08.16-.16.33-.25.49,4.08,1.5,6.6,4.65,8.76,8.13,2.61,4.21,5.42,8.33,7.56,12.77,1.66,3.44,3.68,5.74,7.57,6.25,1.52.2,3.03,1.36,4.46,1.23,4.9-.44,9.76-1.25,14.54-1.91ZM240.89,145.73c-1.02-5.16-4.35-8.62-9.4-9.56-1.68-.31-3.43-.48-5.14-.42-6.83.26-13.66.57-20.48,1-4.12.26-8.27.69-11.88,3.01-.59.38-1.35,1.22-1.28,1.76.24,1.9.81,3.76,1.25,5.63,15.54-3.47,31.09-5.04,46.94-1.42ZM182.87,136.68c-.96-.45-1.6-.79-2.28-1.05-7.61-2.97-16.61-.46-21.71,6.04-3.09,3.94-4.91,8.46-5.5,13.38-.45,3.79-.45,7.63-.64,11.45.27.05.53.09.8.14,6.85-12.7,16.95-22.23,29.33-29.96ZM103.41,209.6c5.11-11.01,15.15-16.38,24.22-23.23-6.36-2.28-12.41-3.26-18.67-1.46-3.93,1.13-7.17,3.28-8.72,7.2-2.48,6.28-.4,11.83,3.16,17.5ZM247.89,195.62c.35-2.4.77-4.23.87-6.08.31-5.46.66-10.92.66-16.39,0-3.38-1.53-5.14-4.26-5.92-2.65,8.87-7.99,15.95-15.68,22.27,6.44,2.14,12.3,4.08,18.42,6.12ZM158.55,191.44c-.76,8.96,8.29,23.02,18,27.82,1.52-4.5,3.07-8.95,4.52-13.42.87-2.67.68-2.87-2.04-3.35-6.34-1.13-12.07-3.6-17-7.79-1.18-1-2.27-2.12-3.48-3.26ZM174.65,223.74c-.76-.54-1.23-.9-1.72-1.23-13.09-8.81-20.03-20.78-19.04-36.87.05-.89-.44-1.81-.68-2.72-.32.05-.64.1-.97.15-1.87,7.05-1.74,14.19-.08,21.29,2.6,11.11,8.28,20.26,18.06,27.21,1.57-2.76,2.99-5.27,4.44-7.82ZM245.24,199.51c-.88-.28-1.45-.44-2-.65-5.1-1.99-10.22-3.92-15.27-6.02-1.82-.76-4.68-.21-5.18,1.64-1.2,4.48-1.59,9.06.26,13.49.23.55,1.43,1.12,2.06,1,3.98-.76,7.93-1.67,11.87-2.63.65-.16,1.45-.64,1.74-1.2,1.38-2.66,3.45-4.49,6.52-5.63ZM155.25,177.08c.28,0,.56,0,.83,0,.57-1.13,1.1-2.28,1.73-3.37,2.95-5.18,6.61-9.49,12.88-10.74.62-.12,1.17-.79,1.66-1.3,2.44-2.53,4.85-5.08,7.26-7.63.45-.47,1.15-.91,1.26-1.46.89-4.42,2.44-8.55,4.99-12.32-13.47,8.13-24.16,18.77-30.55,33.3-.43.99-.06,2.34-.06,3.52ZM252.71,196.12c2.46,1.16,4.76,1.18,6.71-1.22,1.08-1.34,2.29-2.58,3.49-3.82,1.01-1.05,1.06-2.12.62-3.49-2.95-9.12-7.23-17.62-11.88-25.95-.15-.26-.26-.54-.37-.79-1.41.78-2.47,1.37-3.8,2.1,3.86,1.96,5.74,4.91,6.25,8.71.27,2,.42,4.05.31,6.06-.35,6.06-.86,12.12-1.32,18.41ZM168.07,253.75c0-3.41-1.29-6.74-3.38-8.82-2.7-2.68-6.57-2.7-8.94.09-2.46,2.9-2.8,6.29-1.45,9.73,1.32,3.37,4.14,4.82,7.64,4.96,4.7.19,6.15-1.26,6.13-5.96ZM217.21,197.59c-7.54,2.01-15.29,4.08-23.38,6.24,1.08,1.06,2.1,2.85,3.57,3.38,6.81,2.43,13.91,2.91,20.78,2.46-.34-4.23-.67-8.37-.97-12.08ZM267.1,183.14c3.01-9.47,1.82-18.5-1.46-27.65-3.57,1.21-6.87,2.32-9.91,3.35,3.85,8.24,7.56,16.15,11.37,24.31ZM182.26,198.45c.3-.11.6-.22.91-.32.21-2.56.85-5.19.54-7.68-.75-5.87-1.95-11.69-3.01-17.52-.14-.76-.54-1.48-.84-2.3-2.12,1.28-3.91,2.24-5.55,3.43-.6.43-1.12,1.38-1.14,2.11-.14,4.84,1.07,9.42,3.4,13.61,1.68,3.02,3.79,5.79,5.7,8.67ZM168.53,177.04c-2.98,1.2-5.82,2.05-8.3,3.51-.84.49-.97,2.52-1.04,3.86-.03.66.81,1.39,1.3,2.05,3.77,5.07,8.55,8.69,15.15,10.58-4.19-6.22-6.7-12.57-7.11-20.01ZM237.94,215.51c-.69.11-1.21.18-1.72.27-4.88.91-9.69,1.39-14.14-1.64-.42-.29-1.14-.17-1.72-.18-4.57-.04-9.15-.07-13.72-.1-.64,0-1.27,0-1.91,0,9.51,5.28,19.85,5.84,30.23,6.14,1.75.05,3.43-2.68,2.98-4.49ZM221.87,181.77c4.16-5.26,8.37-10.6,12.89-16.33-3.26.84-6.41,1.31-9.28,2.47-6.53,2.63-7.83,8.6-3.61,13.86ZM152.58,260.68c.35,4.27.67,8.19.99,12.09,1.15.26,2.08.55,3.04.66.57.07,1.46.07,1.72-.27,2.18-2.82,4.24-5.73,6.65-9.04-4.86.41-8.86-.36-12.41-3.45ZM289.85,197.1c0-.27,0-.53-.01-.8-.71-.22-1.41-.46-2.12-.66-5.34-1.49-10.71-.88-16.1-.28-1.93.21-2.61,1.08-2.01,3.21,6.76-.11,13.71,1.68,20.25-1.48ZM239.67,168.5c-6.09,4.72-10.97,10.39-13.8,17.65,6.38-4.48,11.18-10.19,13.8-17.65ZM248.3,150.29c1.36,1.52,2.52,2.87,3.76,4.15.31.32.95.65,1.29.54,3.52-1.19,7.01-2.48,10.54-3.75-1.31-1.87-8.68-2.29-15.6-.94ZM251.65,212.46c-3.86-.38-6.02,1.59-7.43,4.65-.16.34-.19.95.02,1.19.17.21.81.2,1.16.07,2.82-1.08,5.1-2.77,6.26-5.92ZM262.44,202.89c-3.2-1.19-5.52-1.22-7.48,1.11.35.71.7,1.42,1.18,2.39,2.07-1.15,3.96-2.2,6.3-3.5ZM162.58,173.9c6.92-1.93,6.54-1.69,6.46-6.06-2.39,2.24-4.42,4.15-6.46,6.06ZM174.09,233.68c1.05.4,1.9.73,2.92,1.12.29-2.31.53-4.27.77-6.22-.11-.04-.21-.08-.32-.12-1.07,1.65-2.13,3.31-3.37,5.22ZM188.71,144.52c-.92,2.06-1.61,3.61-2.44,5.48,3.54-1.16,3.71-1.55,2.44-5.48ZM179.93,164.79v-5.21c-1.25,1.51-2.18,2.62-3.2,3.85,1.14.48,2.01.85,3.2,1.35ZM282.05,203.87c.03-.16.06-.31.1-.47h-10.28c0,.16,0,.31,0,.47h10.18ZM185.22,159.42c.86-1.49,1.72-2.97,2.76-4.77-3.19.61-3.36,2.53-2.76,4.77Z"/>
  <g>
    <path class="st0" d="M446.94,255.35c-2.13,0-3.91-.71-5.34-2.13-1.43-1.42-2.15-3.18-2.15-5.28s.72-3.87,2.15-5.28c1.43-1.42,3.21-2.13,5.34-2.13,1.39,0,2.66.32,3.8.97,1.14.65,2.04,1.54,2.69,2.67.65,1.13.98,2.39.98,3.77s-.33,2.64-.98,3.77c-.65,1.13-1.55,2.02-2.69,2.67-1.14.65-2.41.97-3.8.97ZM442.78,252.12c1.11,1.12,2.5,1.67,4.16,1.67s3.04-.56,4.14-1.67,1.65-2.51,1.65-4.18-.55-3.06-1.65-4.18-2.48-1.67-4.14-1.67-3.05.56-4.16,1.67c-1.11,1.12-1.67,2.51-1.67,4.18s.56,3.06,1.67,4.18Z"/>
    <path class="st0" d="M476.92,255.35c-2.13,0-3.91-.71-5.34-2.13-1.43-1.42-2.15-3.18-2.15-5.28s.72-3.87,2.15-5.28c1.43-1.42,3.21-2.13,5.34-2.13,1.38,0,2.64.32,3.77.95,1.13.63,2.02,1.5,2.66,2.6l-1.41.87c-.5-.88-1.19-1.57-2.07-2.09-.88-.52-1.87-.77-2.95-.77-1.66,0-3.05.56-4.16,1.67-1.11,1.12-1.67,2.51-1.67,4.18s.56,3.06,1.67,4.18c1.11,1.12,2.5,1.67,4.16,1.67,1.08,0,2.07-.26,2.95-.77s1.58-1.21,2.07-2.09l1.41.85c-.65,1.1-1.54,1.97-2.67,2.61-1.13.64-2.38.96-3.77.96Z"/>
    <path class="st0" d="M505.63,255.35c-2.13,0-3.91-.71-5.34-2.13-1.43-1.42-2.15-3.18-2.15-5.28s.72-3.87,2.15-5.28c1.43-1.42,3.21-2.13,5.34-2.13,1.38,0,2.64.32,3.77.95,1.13.63,2.02,1.5,2.66,2.6l-1.41.87c-.5-.88-1.19-1.57-2.07-2.09-.88-.52-1.87-.77-2.95-.77-1.66,0-3.05.56-4.16,1.67-1.11,1.12-1.67,2.51-1.67,4.18s.56,3.06,1.67,4.18c1.11,1.12,2.5,1.67,4.16,1.67,1.08,0,2.07-.26,2.95-.77s1.58-1.21,2.07-2.09l1.41.85c-.65,1.1-1.54,1.97-2.67,2.61-1.13.64-2.38.96-3.77.96Z"/>
    <path class="st0" d="M538.48,253.72c-1.14,1.08-2.65,1.63-4.54,1.63s-3.4-.54-4.54-1.63c-1.14-1.08-1.71-2.51-1.71-4.29v-8.56h1.6v8.34c0,1.37.43,2.48,1.28,3.32.85.84,1.98,1.26,3.38,1.26s2.52-.42,3.37-1.25,1.27-1.94,1.27-3.33v-8.34h1.61v8.56c0,1.78-.57,3.21-1.71,4.29Z"/>
    <path class="st0" d="M564.62,240.53c2.06,0,3.78.71,5.15,2.12s2.07,3.18,2.07,5.29-.69,3.88-2.07,5.29-3.09,2.12-5.15,2.12c-1.33,0-2.53-.33-3.6-.98-1.07-.65-1.9-1.53-2.5-2.64v8.55h-1.61v-19.41h1.61v3.26c.59-1.11,1.42-1.99,2.49-2.63s2.28-.97,3.6-.97ZM560.19,252.12c1.11,1.12,2.5,1.67,4.16,1.67s3.05-.56,4.16-1.67c1.11-1.12,1.67-2.51,1.67-4.18s-.56-3.06-1.67-4.18c-1.11-1.12-2.5-1.67-4.16-1.67s-3.05.56-4.16,1.67-1.67,2.51-1.67,4.18.56,3.06,1.67,4.18Z"/>
    <path class="st0" d="M600.17,240.87h1.61v14.14h-1.61v-3.28c-.6,1.12-1.43,2-2.49,2.65s-2.27.97-3.6.97c-2.05,0-3.76-.71-5.13-2.13-1.37-1.42-2.06-3.18-2.06-5.28s.69-3.87,2.06-5.28c1.37-1.42,3.08-2.13,5.13-2.13,1.34,0,2.54.32,3.6.96,1.07.64,1.9,1.52,2.49,2.64v-3.26ZM594.35,253.79c1.66,0,3.05-.56,4.16-1.67s1.67-2.51,1.67-4.18-.56-3.06-1.67-4.18-2.5-1.67-4.16-1.67-3.03.56-4.14,1.67-1.66,2.51-1.66,4.18.55,3.06,1.66,4.18,2.49,1.67,4.14,1.67Z"/>
    <path class="st0" d="M626.46,242.33h-4.51v9.05c0,1.61.83,2.41,2.49,2.41.69,0,1.36-.18,2.02-.53v1.53c-.7.37-1.47.56-2.33.56-1.23,0-2.17-.31-2.82-.94-.65-.63-.98-1.56-.98-2.78v-9.29h-2.75v-1.46h2.75v-3.94h1.61v3.94h4.51v1.46Z"/>
    <path class="st0" d="M643.02,237.53c-.33,0-.6-.11-.83-.34s-.34-.5-.34-.83.12-.58.35-.81c.23-.22.5-.33.82-.33.33,0,.62.11.85.33.23.22.35.49.35.81,0,.33-.12.61-.35.83-.23.22-.51.33-.85.33ZM642.22,255.01v-14.14h1.61v14.14h-1.61Z"/>
    <path class="st0" d="M667.28,255.35c-2.13,0-3.91-.71-5.34-2.13-1.43-1.42-2.15-3.18-2.15-5.28s.72-3.87,2.15-5.28c1.43-1.42,3.21-2.13,5.34-2.13,1.39,0,2.66.32,3.8.97,1.14.65,2.04,1.54,2.69,2.67.65,1.13.98,2.39.98,3.77s-.33,2.64-.98,3.77c-.65,1.13-1.55,2.02-2.69,2.67-1.14.65-2.41.97-3.8.97ZM663.12,252.12c1.11,1.12,2.5,1.67,4.16,1.67s3.04-.56,4.14-1.67,1.65-2.51,1.65-4.18-.55-3.06-1.65-4.18-2.48-1.67-4.14-1.67-3.05.56-4.16,1.67c-1.11,1.12-1.67,2.51-1.67,4.18s.56,3.06,1.67,4.18Z"/>
    <path class="st0" d="M697.79,240.53c1.78,0,3.21.54,4.3,1.62,1.09,1.08,1.63,2.51,1.63,4.29v8.57h-1.6v-8.1c0-1.45-.44-2.62-1.32-3.5-.88-.88-2.04-1.32-3.49-1.32s-2.71.45-3.63,1.34c-.92.89-1.38,2.07-1.38,3.54v8.05h-1.61v-14.14h1.61v2.65c.53-.96,1.27-1.7,2.21-2.21.94-.52,2.03-.78,3.27-.78Z"/>
    <path class="st0" d="M732.82,240.87h1.61v14.14h-1.61v-3.28c-.6,1.12-1.43,2-2.49,2.65s-2.27.97-3.6.97c-2.05,0-3.76-.71-5.13-2.13-1.37-1.42-2.06-3.18-2.06-5.28s.69-3.87,2.06-5.28c1.37-1.42,3.08-2.13,5.13-2.13,1.34,0,2.54.32,3.6.96,1.07.64,1.9,1.52,2.49,2.64v-3.26ZM726.99,253.79c1.66,0,3.05-.56,4.16-1.67s1.67-2.51,1.67-4.18-.56-3.06-1.67-4.18-2.5-1.67-4.16-1.67-3.03.56-4.14,1.67-1.66,2.51-1.66,4.18.55,3.06,1.66,4.18,2.49,1.67,4.14,1.67Z"/>
    <path class="st0" d="M751.29,255.01v-19.98h1.61v19.98h-1.61Z"/>
    <path class="st0" d="M797.29,242.33h-4.51v9.05c0,1.61.83,2.41,2.49,2.41.69,0,1.36-.18,2.02-.53v1.53c-.7.37-1.47.56-2.33.56-1.23,0-2.17-.31-2.82-.94-.65-.63-.98-1.56-.98-2.78v-9.29h-2.75v-1.46h2.75v-3.94h1.61v3.94h4.51v1.46Z"/>
    <path class="st0" d="M820.15,240.53c1.78,0,3.21.54,4.3,1.62,1.09,1.08,1.63,2.51,1.63,4.29v8.57h-1.6v-8.1c0-1.45-.44-2.62-1.32-3.5-.88-.88-2.04-1.32-3.49-1.32s-2.71.45-3.63,1.34c-.92.89-1.38,2.07-1.38,3.54v8.05h-1.61v-19.98h1.61v8.55c.53-.98,1.27-1.73,2.21-2.26.94-.53,2.03-.79,3.27-.79Z"/>
    <path class="st0" d="M856.59,247.94c0,.17-.02.4-.05.69h-12.99c.17,1.54.81,2.79,1.93,3.76s2.48,1.46,4.1,1.46c1.13,0,2.16-.25,3.1-.74.94-.49,1.67-1.14,2.19-1.96l1.14.95c-.69,1.01-1.6,1.81-2.74,2.38-1.14.58-2.39.87-3.77.87-2.19,0-4.01-.71-5.47-2.13-1.46-1.42-2.19-3.19-2.19-5.3s.7-3.86,2.11-5.27c1.41-1.41,3.17-2.11,5.27-2.11s3.84.71,5.25,2.12,2.11,3.18,2.11,5.29ZM853.05,243.47c-1.06-.96-2.34-1.44-3.85-1.44s-2.79.48-3.83,1.44c-1.05.96-1.66,2.19-1.83,3.71h11.35c-.17-1.52-.79-2.75-1.84-3.71Z"/>
    <path class="st0" d="M879.38,240.64h.42v1.67h-.42c-1.63,0-2.92.49-3.88,1.46-.96.97-1.44,2.29-1.44,3.94v7.3h-1.61v-14.14h1.61v2.97c.52-1.01,1.24-1.8,2.16-2.36.92-.56,1.97-.84,3.16-.84Z"/>
    <path class="st0" d="M906.64,240.87h1.61v14.14h-1.61v-3.28c-.6,1.12-1.43,2-2.49,2.65s-2.27.97-3.6.97c-2.05,0-3.76-.71-5.13-2.13-1.37-1.42-2.06-3.18-2.06-5.28s.69-3.87,2.06-5.28c1.37-1.42,3.08-2.13,5.13-2.13,1.34,0,2.54.32,3.6.96,1.07.64,1.9,1.52,2.49,2.64v-3.26ZM900.82,253.79c1.66,0,3.05-.56,4.16-1.67s1.67-2.51,1.67-4.18-.56-3.06-1.67-4.18-2.5-1.67-4.16-1.67-3.03.56-4.14,1.67-1.66,2.51-1.66,4.18.55,3.06,1.66,4.18,2.49,1.67,4.14,1.67Z"/>
    <path class="st0" d="M932.82,240.53c2.06,0,3.78.71,5.15,2.12s2.07,3.18,2.07,5.29-.69,3.88-2.07,5.29-3.09,2.12-5.15,2.12c-1.33,0-2.53-.33-3.6-.98-1.07-.65-1.9-1.53-2.5-2.64v8.55h-1.61v-19.41h1.61v3.26c.59-1.11,1.42-1.99,2.49-2.63s2.28-.97,3.6-.97ZM928.39,252.12c1.11,1.12,2.5,1.67,4.16,1.67s3.05-.56,4.16-1.67c1.11-1.12,1.67-2.51,1.67-4.18s-.56-3.06-1.67-4.18c-1.11-1.12-2.5-1.67-4.16-1.67s-3.05.56-4.16,1.67-1.67,2.51-1.67,4.18.56,3.06,1.67,4.18Z"/>
    <path class="st0" d="M966.35,240.87h1.8l-8.05,17.45c-.32.74-.77,1.31-1.33,1.71-.56.4-1.18.6-1.85.6-.52,0-1.05-.12-1.59-.37-.54-.24-.99-.56-1.35-.95l.72-1.22c.53.65,1.2.97,1.99.97.84,0,1.49-.46,1.95-1.38l1.3-2.7-6.41-14.11h1.86l5.5,12.29,5.46-12.29Z"/>
  </g>
</svg>